<svg id="visual" viewBox="0 0 900 600" width="900" height="600" xmlns="http://www.w3.org/2000/svg" xmlns:xlink="http://www.w3.org/1999/xlink" version="1.1"><rect x="0" y="0" width="900" height="600" fill="#001220"></rect><defs><linearGradient id="grad1_0" x1="33.3%" y1="0%" x2="100%" y2="100%"><stop offset="20%" stop-color="#001220" stop-opacity="1"></stop><stop offset="80%" stop-color="#001220" stop-opacity="1"></stop></linearGradient></defs><defs><linearGradient id="grad2_0" x1="0%" y1="0%" x2="66.7%" y2="100%"><stop offset="20%" stop-color="#001220" stop-opacity="1"></stop><stop offset="80%" stop-color="#001220" stop-opacity="1"></stop></linearGradient></defs><g transform="translate(900, 0)"><path d="M0 324.5C-61.5 318.8 -123.1 313 -162.2 281C-201.4 249 -218.3 190.7 -241.6 139.5C-264.9 88.3 -294.7 44.1 -324.5 0L0 0Z" fill="#613a85"></path></g><g transform="translate(0, 600)"><path d="M0 -324.5C43.9 -294.3 87.7 -264 139 -240.8C190.3 -217.5 248.9 -201.2 281 -162.2C313.2 -123.3 318.8 -61.6 324.5 0L0 0Z" fill="#613a85"></path></g></svg>