<svg xmlns="http://www.w3.org/2000/svg" version="1.1" xmlns:xlink="http://www.w3.org/1999/xlink" xmlns:svgjs="http://svgjs.dev/svgjs" width="1440" height="250" preserveAspectRatio="none" viewBox="0 0 1440 250"><g mask="url(&quot;#SvgjsMask1359&quot;)" fill="none"><rect width="1440" height="250" x="0" y="0" fill="url(&quot;#SvgjsLinearGradient1360&quot;)"></rect><path d="M6 250L256 0L328 0L78 250z" fill="url(&quot;#SvgjsLinearGradient1361&quot;)"></path><path d="M249.60000000000002 250L499.6 0L753.1 0L503.1 250z" fill="url(&quot;#SvgjsLinearGradient1361&quot;)"></path><path d="M491.20000000000005 250L741.2 0L850.7 0L600.7 250z" fill="url(&quot;#SvgjsLinearGradient1361&quot;)"></path><path d="M728.8000000000001 250L978.8000000000001 0L1115.3000000000002 0L865.3000000000001 250z" fill="url(&quot;#SvgjsLinearGradient1361&quot;)"></path><path d="M1407 250L1157 0L837.5 0L1087.5 250z" fill="url(&quot;#SvgjsLinearGradient1362&quot;)"></path><path d="M1169.4 250L919.4000000000001 0L830.9000000000001 0L1080.9 250z" fill="url(&quot;#SvgjsLinearGradient1362&quot;)"></path><path d="M948.8 250L698.8 0L502.29999999999995 0L752.3 250z" fill="url(&quot;#SvgjsLinearGradient1362&quot;)"></path><path d="M720.1999999999999 250L470.19999999999993 0L372.69999999999993 0L622.6999999999999 250z" fill="url(&quot;#SvgjsLinearGradient1362&quot;)"></path><path d="M1243.5893216460126 250L1440 53.58932164601268L1440 250z" fill="url(&quot;#SvgjsLinearGradient1361&quot;)"></path><path d="M0 250L196.41067835398732 250L 0 53.58932164601268z" fill="url(&quot;#SvgjsLinearGradient1362&quot;)"></path></g><defs><mask id="SvgjsMask1359"><rect width="1440" height="250" fill="#ffffff"></rect></mask><linearGradient x1="20.66%" y1="-119%" x2="79.34%" y2="219%" gradientUnits="userSpaceOnUse" id="SvgjsLinearGradient1360"><stop stop-color="rgba(14, 42, 71, 1)" offset="0"></stop><stop stop-color="rgba(29, 0, 24, 1)" offset="1"></stop></linearGradient><linearGradient x1="0%" y1="100%" x2="100%" y2="0%" id="SvgjsLinearGradient1361"><stop stop-color="rgba(15, 70, 185, 0.2)" offset="0"></stop><stop stop-opacity="0" stop-color="rgba(15, 70, 185, 0.2)" offset="0.66"></stop></linearGradient><linearGradient x1="100%" y1="100%" x2="0%" y2="0%" id="SvgjsLinearGradient1362"><stop stop-color="rgba(15, 70, 185, 0.2)" offset="0"></stop><stop stop-opacity="0" stop-color="rgba(15, 70, 185, 0.2)" offset="0.66"></stop></linearGradient></defs></svg>